{"title":"Pirates of the Caribbean, On Stranger Tides 2011 DVDrip English ","uid":6617873,"size":2063808520,"categoryP":"video","categoryS":"movies","magnet":"?xt=urn:btih:a528d382550825a7811600f65d03fe9a3cf5a225&amp;dn=Pirates+of+the+Caribbean%2C+On+Stranger+Tides+2011+DVDrip+English+&amp;tr=udp%3A%2F%2Ftracker.openbittorrent.com%3A80&amp;tr=udp%3A%2F%2Fopen.demonii.com%3A1337&amp;tr=udp%3A%2F%2Ftracker.coppersurfer.tk%3A6969&amp;tr=udp%3A%2F%2Fexodus.desync.com%3A6969","seeders":0,"leechers":2,"uploader":"Klambake","files":-1,"time":1313860598,"description":"With: Johnny Depp, PenÃƒÂ©lope Cruz and Ian McShane\n\nKapitein Jack Sparrow (Johnny Depp) kruist wegen met een mysterieuze vrouw (PenÃƒÂ©lope Cruz) die hij ooit eerder heeft ontmoet. Hij valt als een blok voor haar, maar al snel blijkt dat haar bedoelingen niet zuiver zijn. Ze dwingt Jack aan boord te gaan van het schip van piraat Blackbeard (Ian McShane) om de geheimzinnige 'Fontein van de Eeuwige Jeugd' te vinden. Een onverwacht avontuur begint waarvan Jack er niet over uit is welke hoofdrolspeler daarin hij meer moet vrezen: Blackbeard of de mysterieuze vrouw van het verleden.\n\nJack Sparrow and Barbossa embark on a quest to find the elusive fountain of youth, only to discover that Blackbeard and his daughter are after it too. \n\n------------------ Dutch Friends ------------------\nYou can find my Friends at: http://www.Film-Test.nl \n------ They got my dutchs subs ---- and more ------\n\nGeneral:\n\nComplete name                    : Pirates of the Caribbean\\On Stranger Tides.avi\nFormat                           : AVI\nFormat/Info                      : Audio Video Interleave\nFile size                        : 1.92 GiB\nDuration                         : 2h 15mn\nOverall bit rate                 : 2 031 Kbps\n\nVideo:\n\nFormat                           : MPEG-4 Visual\nFormat profile                   : Simple@L3\nFormat settings, BVOP            : No\nFormat settings, QPel            : No\nFormat settings, GMC             : No warppoints\nFormat settings, Matrix          : Default (H.263)\nCodec ID                         : XVID\nCodec ID/Hint                    : XviD\nDuration                         : 2h 15mn\nBit rate                         : 1 636 Kbps\nWidth                            : 720 pixels\nHeight                           : 304 pixels\nDisplay aspect ratio             : 2.35:1\nFrame rate                       : 23.976 fps\nColor space                      : YUV\nChroma subsampling               : 4:2:0\nBit depth                        : 8 bits\nScan type                        : Progressive\nBits/(Pixel*Frame)               : 0.312\nStream size                      : 1.55 GiB (81%)\nWriting library                  : XviD 1.1.2 (UTC 2006-11-01)\n\nAudio:\n\nFormat                           : AC-3\nFormat/Info                      : Audio Coding 3\nMode extension                   : CM (complete main)\nCodec ID                         : 2000\nDuration                         : 2h 15mn\nBit rate mode                    : Constant\nBit rate                         : 384 Kbps\nChannel(s)                       : 6 channels\nChannel positions                : Front: L C R, Side: L R, LFE\nSampling rate                    : 48.0 KHz\nBit depth                        : 16 bits\nStream size                      : 372 MiB (19%)\nAlignment                        : Aligned on interleaves\nInterleave, duration             : 32 ms (0.77 video frame)\nInterleave, preload duration     : 896 ms\n\n","torrent":{"xt":"urn:btih:a528d382550825a7811600f65d03fe9a3cf5a225","amp;dn":"Pirates+of+the+Caribbean%2C+On+Stranger+Tides+2011+DVDrip+English+","amp;tr":["udp%3A%2F%2Ftracker.openbittorrent.com%3A80","udp%3A%2F%2Fopen.demonii.com%3A1337","udp%3A%2F%2Ftracker.coppersurfer.tk%3A6969","udp%3A%2F%2Fexodus.desync.com%3A6969"],"infoHash":"a528d382550825a7811600f65d03fe9a3cf5a225","infoHashBuffer":{"type":"Buffer","data":[165,40,211,130,85,8,37,167,129,22,0,246,93,3,254,154,60,245,162,37]},"announce":[],"urlList":[]}}